<svg width="24" height="24" viewBox="0 0 24 24" fill="none" xmlns="http://www.w3.org/2000/svg">
<rect width="24" height="24" fill="#2e3bff"/>
<path d="M14.979 10.067H12.5376C12.4418 10.067 12.3498 10.1051 12.282 10.173L6.66007 15.8009H3V10.3807L5.17681 8.19913V14.2411H5.48783L11.1686 8.55441C11.3959 8.32688 11.7041 8.19913 12.0255 8.19913H14.9791L14.979 10.067ZM20.9999 8.19913H17.3398L11.7179 13.827C11.6501 13.8949 11.5581 13.933 11.4623 13.933H9.0209V15.8008H11.9719C12.2949 15.8008 12.6047 15.6724 12.833 15.4437L18.5121 9.75887H18.8231V14.8638H15.3158V15.8009H18.8231L19.1462 15.4771L19.4475 15.1752L21 13.6194L20.9999 8.19913Z" fill="white"/>
</svg>
